<mxfile host="app.diagrams.net" modified="2024-01-09T07:53:51.276Z" agent="Mozilla/5.0 (Macintosh; Intel Mac OS X 10_15_7) AppleWebKit/537.36 (KHTML, like Gecko) Chrome/120.0.0.0 Safari/537.36" etag="dEAiwyZGmujdzyak7dha" version="21.6.6" type="github">
  <diagram name="Page-1" id="t0wirQSe8Ndwz_d9o5BJ">
    <mxGraphModel dx="954" dy="606" grid="1" gridSize="10" guides="1" tooltips="1" connect="1" arrows="1" fold="1" page="1" pageScale="1" pageWidth="827" pageHeight="1169" math="0" shadow="0">
      <root>
        <mxCell id="0" />
        <mxCell id="1" parent="0" />
        <mxCell id="t5gcVrF-W7fBeW5LNrVJ-37" value="" style="rounded=0;whiteSpace=wrap;html=1;fillColor=#FAFAFA;" parent="1" vertex="1">
          <mxGeometry x="20" y="80" width="960" height="600" as="geometry" />
        </mxCell>
        <mxCell id="fkEtAioq37oKQ52HWlk9-8" style="edgeStyle=orthogonalEdgeStyle;rounded=0;orthogonalLoop=1;jettySize=auto;html=1;exitX=1;exitY=0.5;exitDx=0;exitDy=0;exitPerimeter=0;entryX=0;entryY=0.5;entryDx=0;entryDy=0;" edge="1" parent="1" source="t5gcVrF-W7fBeW5LNrVJ-4" target="LVUbIvGB1ecaTfpnunjM-4">
          <mxGeometry relative="1" as="geometry" />
        </mxCell>
        <mxCell id="fkEtAioq37oKQ52HWlk9-10" value="&lt;font style=&quot;font-size: 15px;&quot;&gt;0 Trigger&lt;/font&gt;" style="edgeLabel;html=1;align=center;verticalAlign=middle;resizable=0;points=[];" vertex="1" connectable="0" parent="fkEtAioq37oKQ52HWlk9-8">
          <mxGeometry x="-0.169" y="-4" relative="1" as="geometry">
            <mxPoint x="22" y="-5" as="offset" />
          </mxGeometry>
        </mxCell>
        <mxCell id="t5gcVrF-W7fBeW5LNrVJ-4" value="Task Queue" style="sketch=0;points=[[0,0,0],[0.25,0,0],[0.5,0,0],[0.75,0,0],[1,0,0],[0,1,0],[0.25,1,0],[0.5,1,0],[0.75,1,0],[1,1,0],[0,0.25,0],[0,0.5,0],[0,0.75,0],[1,0.25,0],[1,0.5,0],[1,0.75,0]];outlineConnect=0;fontColor=#232F3E;gradientColor=#FF4F8B;gradientDirection=north;fillColor=#BC1356;strokeColor=#ffffff;dashed=0;verticalLabelPosition=bottom;verticalAlign=top;align=center;html=1;fontSize=12;fontStyle=0;aspect=fixed;shape=mxgraph.aws4.resourceIcon;resIcon=mxgraph.aws4.sqs;" parent="1" vertex="1">
          <mxGeometry x="50" y="316" width="78" height="78" as="geometry" />
        </mxCell>
        <mxCell id="t5gcVrF-W7fBeW5LNrVJ-9" value="Task Table" style="sketch=0;points=[[0,0,0],[0.25,0,0],[0.5,0,0],[0.75,0,0],[1,0,0],[0,1,0],[0.25,1,0],[0.5,1,0],[0.75,1,0],[1,1,0],[0,0.25,0],[0,0.5,0],[0,0.75,0],[1,0.25,0],[1,0.5,0],[1,0.75,0]];outlineConnect=0;fontColor=#232F3E;gradientColor=#4D72F3;gradientDirection=north;fillColor=#3334B9;strokeColor=#ffffff;dashed=0;verticalLabelPosition=bottom;verticalAlign=top;align=center;html=1;fontSize=12;fontStyle=0;aspect=fixed;shape=mxgraph.aws4.resourceIcon;resIcon=mxgraph.aws4.dynamodb;" parent="1" vertex="1">
          <mxGeometry x="406.63" y="585" width="78" height="78" as="geometry" />
        </mxCell>
        <mxCell id="t5gcVrF-W7fBeW5LNrVJ-11" value="Exported File(JSON/ISHNE)" style="sketch=0;points=[[0,0,0],[0.25,0,0],[0.5,0,0],[0.75,0,0],[1,0,0],[0,1,0],[0.25,1,0],[0.5,1,0],[0.75,1,0],[1,1,0],[0,0.25,0],[0,0.5,0],[0,0.75,0],[1,0.25,0],[1,0.5,0],[1,0.75,0]];outlineConnect=0;fontColor=#232F3E;gradientColor=#60A337;gradientDirection=north;fillColor=#277116;strokeColor=#ffffff;dashed=0;verticalLabelPosition=bottom;verticalAlign=top;align=center;html=1;fontSize=12;fontStyle=0;aspect=fixed;shape=mxgraph.aws4.resourceIcon;resIcon=mxgraph.aws4.s3;" parent="1" vertex="1">
          <mxGeometry x="411" y="80" width="78" height="78" as="geometry" />
        </mxCell>
        <object placeholders="1" c4Name="Task Listener(Worker)" c4Type="ContainerScopeBoundary" c4Application="Container" label="&lt;font style=&quot;font-size: 16px&quot;&gt;&lt;b&gt;&lt;div style=&quot;text-align: left&quot;&gt;%c4Name%&lt;/div&gt;&lt;/b&gt;&lt;/font&gt;&lt;div style=&quot;text-align: left&quot;&gt;[%c4Application%]&lt;/div&gt;" id="t5gcVrF-W7fBeW5LNrVJ-5">
          <mxCell style="rounded=1;fontSize=11;whiteSpace=wrap;html=1;dashed=1;arcSize=20;fillColor=none;strokeColor=#666666;fontColor=#333333;labelBackgroundColor=none;align=left;verticalAlign=bottom;labelBorderColor=none;spacingTop=0;spacing=10;dashPattern=8 4;metaEdit=1;rotatable=0;perimeter=rectanglePerimeter;noLabel=0;labelPadding=0;allowArrows=0;connectable=0;expand=0;recursiveResize=0;editable=1;pointerEvents=0;absoluteArcSize=1;points=[[0.25,0,0],[0.5,0,0],[0.75,0,0],[1,0.25,0],[1,0.5,0],[1,0.75,0],[0.75,1,0],[0.5,1,0],[0.25,1,0],[0,0.75,0],[0,0.5,0],[0,0.25,0]];" parent="1" vertex="1">
            <mxGeometry x="170" y="210" width="590" height="340" as="geometry" />
          </mxCell>
        </object>
        <mxCell id="t5gcVrF-W7fBeW5LNrVJ-6" value="" style="sketch=0;points=[[0,0,0],[0.25,0,0],[0.5,0,0],[0.75,0,0],[1,0,0],[0,1,0],[0.25,1,0],[0.5,1,0],[0.75,1,0],[1,1,0],[0,0.25,0],[0,0.5,0],[0,0.75,0],[1,0.25,0],[1,0.5,0],[1,0.75,0]];outlineConnect=0;fontColor=#232F3E;gradientColor=#F78E04;gradientDirection=north;fillColor=#D05C17;strokeColor=#ffffff;dashed=0;verticalLabelPosition=bottom;verticalAlign=top;align=center;html=1;fontSize=12;fontStyle=0;aspect=fixed;shape=mxgraph.aws4.resourceIcon;resIcon=mxgraph.aws4.lambda;container=0;" parent="1" vertex="1">
          <mxGeometry x="170" y="210" width="78" height="78" as="geometry" />
        </mxCell>
        <mxCell id="LVUbIvGB1ecaTfpnunjM-3" value="&lt;pre style=&quot;background-color: rgb(255, 255, 255);&quot;&gt;&lt;font face=&quot;Helvetica&quot; style=&quot;font-size: 12px;&quot;&gt;VitalQueryServiceImpl.java&lt;/font&gt;&lt;/pre&gt;" style="rounded=1;whiteSpace=wrap;html=1;" parent="1" vertex="1">
          <mxGeometry x="590" y="480" width="160" height="60" as="geometry" />
        </mxCell>
        <mxCell id="LVUbIvGB1ecaTfpnunjM-28" value="Local File(JSON/ISHNE)" style="image;html=1;image=img/lib/clip_art/general/Full_Folder_128x128.png" parent="1" vertex="1">
          <mxGeometry x="630" y="78" width="80" height="80" as="geometry" />
        </mxCell>
        <mxCell id="fkEtAioq37oKQ52HWlk9-3" value="" style="group" vertex="1" connectable="0" parent="1">
          <mxGeometry x="270" y="250" width="360" height="240.76999999999992" as="geometry" />
        </mxCell>
        <mxCell id="LVUbIvGB1ecaTfpnunjM-4" value="1. Data Event Query&lt;br&gt;2.Write Data Event to Local File(JSON/ISHNE)&lt;br&gt;&lt;span style=&quot;&quot;&gt;&amp;nbsp;&amp;nbsp;&amp;nbsp;&amp;nbsp;&lt;/span&gt;&lt;font color=&quot;#cc0000&quot;&gt;2.1 Exclude specified fields only when write JSON file.&lt;br&gt;&lt;span style=&quot;&quot;&gt;&amp;nbsp;&amp;nbsp;&amp;nbsp;&amp;nbsp;&lt;/span&gt;2.2 The excluded fields will be presented as new request field in&lt;br&gt;&lt;span style=&quot;&quot;&gt;&lt;span style=&quot;&quot;&gt;&amp;nbsp;&amp;nbsp;&amp;nbsp;&amp;nbsp;&lt;span style=&quot;&quot;&gt;&lt;span style=&quot;&quot;&gt;&amp;nbsp;&amp;nbsp;&amp;nbsp;&amp;nbsp;&lt;/span&gt;&lt;/span&gt;&lt;/span&gt;&lt;/span&gt;API &quot;Create Task&quot;, default null to include all fields for the &lt;span style=&quot;&quot;&gt;&lt;span style=&quot;&quot;&gt;&amp;nbsp;&amp;nbsp;&amp;nbsp;&amp;nbsp;&lt;span style=&quot;&quot;&gt;&lt;span style=&quot;&quot;&gt;&amp;nbsp;&amp;nbsp;&amp;nbsp;&amp;nbsp;&lt;/span&gt;&lt;/span&gt;&lt;/span&gt;&lt;/span&gt;compatibility with previous version.&lt;br&gt;&lt;span style=&quot;&quot;&gt;&amp;nbsp;&amp;nbsp;&amp;nbsp;&amp;nbsp;&lt;/span&gt;2.3&amp;nbsp;The excluded fields will be persisted as a new column in DB&lt;br style=&quot;border-color: var(--border-color);&quot;&gt;&lt;span style=&quot;border-color: var(--border-color);&quot;&gt;&lt;span style=&quot;border-color: var(--border-color);&quot;&gt;&amp;nbsp;&amp;nbsp;&amp;nbsp;&amp;nbsp;&lt;span style=&quot;white-space: pre;&quot;&gt;&#x9;&lt;/span&gt;table &quot;&lt;/span&gt;&lt;/span&gt;Task&quot;.&lt;br&gt;&amp;nbsp; &amp;nbsp; 2.4 The excluded fields will be presented as JSONPath&lt;br&gt;&lt;span style=&quot;white-space: pre;&quot;&gt;&#x9;&lt;/span&gt;expression for the&amp;nbsp;&lt;font style=&quot;border-color: var(--border-color);&quot;&gt;generality&lt;/font&gt;&lt;span style=&quot;border-color: var(--border-color); font-family: &amp;quot;Noto Sans&amp;quot;, &amp;quot;SF Pro SC&amp;quot;, &amp;quot;SF Pro Text&amp;quot;, &amp;quot;SF Pro Icons&amp;quot;, &amp;quot;PingFang SC&amp;quot;, &amp;quot;Helvetica Neue&amp;quot;, Helvetica, Arial, sans-serif; font-size: 14px;&quot;&gt;&amp;nbsp;&lt;/span&gt;and convenience.&lt;/font&gt;&lt;br&gt;3. Upload Generated Local File to S3&lt;br&gt;4. Update Task Table" style="rounded=1;whiteSpace=wrap;html=1;align=left;" parent="fkEtAioq37oKQ52HWlk9-3" vertex="1">
          <mxGeometry width="360" height="210" as="geometry" />
        </mxCell>
        <mxCell id="LVUbIvGB1ecaTfpnunjM-10" value="FileExportTaskListener.java" style="text;html=1;strokeColor=none;fillColor=none;align=center;verticalAlign=middle;whiteSpace=wrap;rounded=0;" parent="fkEtAioq37oKQ52HWlk9-3" vertex="1">
          <mxGeometry x="80.01" y="210" width="191.25" height="20" as="geometry" />
        </mxCell>
        <mxCell id="fkEtAioq37oKQ52HWlk9-4" style="edgeStyle=orthogonalEdgeStyle;rounded=0;orthogonalLoop=1;jettySize=auto;html=1;exitX=1;exitY=0.5;exitDx=0;exitDy=0;entryX=0.5;entryY=0;entryDx=0;entryDy=0;" edge="1" parent="1" source="LVUbIvGB1ecaTfpnunjM-4" target="LVUbIvGB1ecaTfpnunjM-3">
          <mxGeometry relative="1" as="geometry" />
        </mxCell>
        <mxCell id="fkEtAioq37oKQ52HWlk9-11" value="&lt;font style=&quot;font-size: 15px;&quot;&gt;1&lt;/font&gt;" style="edgeLabel;html=1;align=center;verticalAlign=middle;resizable=0;points=[];" vertex="1" connectable="0" parent="fkEtAioq37oKQ52HWlk9-4">
          <mxGeometry x="0.0485" y="4" relative="1" as="geometry">
            <mxPoint x="-5" as="offset" />
          </mxGeometry>
        </mxCell>
        <mxCell id="fkEtAioq37oKQ52HWlk9-5" style="edgeStyle=orthogonalEdgeStyle;rounded=0;orthogonalLoop=1;jettySize=auto;html=1;exitX=1;exitY=0.5;exitDx=0;exitDy=0;" edge="1" parent="1" source="LVUbIvGB1ecaTfpnunjM-4" target="LVUbIvGB1ecaTfpnunjM-28">
          <mxGeometry relative="1" as="geometry" />
        </mxCell>
        <mxCell id="fkEtAioq37oKQ52HWlk9-12" value="&lt;font style=&quot;font-size: 15px;&quot;&gt;2&lt;/font&gt;" style="edgeLabel;html=1;align=center;verticalAlign=middle;resizable=0;points=[];" vertex="1" connectable="0" parent="fkEtAioq37oKQ52HWlk9-5">
          <mxGeometry x="0.0042" y="-1" relative="1" as="geometry">
            <mxPoint x="-2" as="offset" />
          </mxGeometry>
        </mxCell>
        <mxCell id="fkEtAioq37oKQ52HWlk9-6" style="edgeStyle=orthogonalEdgeStyle;rounded=0;orthogonalLoop=1;jettySize=auto;html=1;exitX=0.5;exitY=1;exitDx=0;exitDy=0;entryX=0.5;entryY=0;entryDx=0;entryDy=0;entryPerimeter=0;" edge="1" parent="1" source="LVUbIvGB1ecaTfpnunjM-10" target="t5gcVrF-W7fBeW5LNrVJ-9">
          <mxGeometry relative="1" as="geometry" />
        </mxCell>
        <mxCell id="fkEtAioq37oKQ52HWlk9-14" value="&lt;font style=&quot;font-size: 15px;&quot;&gt;4&lt;/font&gt;" style="edgeLabel;html=1;align=center;verticalAlign=middle;resizable=0;points=[];" vertex="1" connectable="0" parent="fkEtAioq37oKQ52HWlk9-6">
          <mxGeometry x="-0.1714" y="1" relative="1" as="geometry">
            <mxPoint x="-2" y="-1" as="offset" />
          </mxGeometry>
        </mxCell>
        <mxCell id="fkEtAioq37oKQ52HWlk9-7" style="edgeStyle=orthogonalEdgeStyle;rounded=0;orthogonalLoop=1;jettySize=auto;html=1;exitX=0.5;exitY=0;exitDx=0;exitDy=0;entryX=0.5;entryY=1;entryDx=0;entryDy=0;entryPerimeter=0;" edge="1" parent="1" source="LVUbIvGB1ecaTfpnunjM-4" target="t5gcVrF-W7fBeW5LNrVJ-11">
          <mxGeometry relative="1" as="geometry" />
        </mxCell>
        <mxCell id="fkEtAioq37oKQ52HWlk9-13" value="&lt;font style=&quot;font-size: 15px;&quot;&gt;3&lt;/font&gt;" style="edgeLabel;html=1;align=center;verticalAlign=middle;resizable=0;points=[];" vertex="1" connectable="0" parent="fkEtAioq37oKQ52HWlk9-7">
          <mxGeometry x="-0.1848" y="-3" relative="1" as="geometry">
            <mxPoint x="-4" as="offset" />
          </mxGeometry>
        </mxCell>
      </root>
    </mxGraphModel>
  </diagram>
</mxfile>
